<?xml version="1.0"?>
<svg width="640" height="480" xmlns="http://www.w3.org/2000/svg" xmlns:svg="http://www.w3.org/2000/svg">
 <!-- Created with SVG-edit - http://svg-edit.googlecode.com/ -->
 <g>
  <title>Layer 1</title>
  <rect stroke="#000000" id="svg_4" height="101" width="453.000013" y="261.5" x="126.5" stroke-linecap="null" stroke-linejoin="null" stroke-dasharray="null" stroke-width="0" fill="#000000"/>
  <polygon stroke="#000000" stroke-width="0" points="541,277.9153747558594 549.4295654296875,299.7580261230469 575.0982666015625,300.2291564941406 554.6393432617188,314.1998291015625 562.0739135742188,336.3336486816406 541,323.1253356933594 519.9261169433594,336.3336486816406 527.3607177734375,314.1998291015625 506.9017333984375,300.2291564941406 532.5704345703125,299.7580261230469 541,277.9153747558594 549.4295654296875,299.7580261230469 " strokeWidth="0" strokecolor="#000000" fill="#999999" orient="point" r2="16.233847" r="40.584617" point="5" shape="star" id="svg_5" cy="311.5" cx="70.5"/>
  <polygon stroke-width="0" stroke="#000000" points="175.5,274.7309265136719 183.67469787597656,298.2485046386719 208.56735229492188,298.7557678222656 188.72694396972656,313.7976989746094 195.93675231933594,337.6287841796875 175.5,323.4076232910156 155.06324768066406,337.6287841796875 162.27305603027344,313.7976989746094 142.43264770507812,298.7557678222656 167.32530212402344,298.2485046386719 175.5,274.7309265136719 183.67469787597656,298.2485046386719 " strokeWidth="0" strokecolor="#000000" fill="#999999" orient="point" r2="13.907632" r="34.769079" point="5" shape="star" id="svg_7" cy="309.5" cx="161.5"/>
  <text id="svg_3" stroke="#000000" transform="matrix(4.854824169497382,0,0,1,-1438.889572458874,0) " xml:space="preserve" text-anchor="middle" font-family="serif" font-size="24" y="312.625" x="364.850756" stroke-linecap="null" stroke-linejoin="null" stroke-dasharray="null" stroke-width="0" fill="#999999">-A-L-A</text>
 </g>
</svg>